<svg width="1920" height="1080" viewBox="0 0 1920 1080" xmlns="http://www.w3.org/2000/svg">
  <defs>
    <linearGradient id="g" x1="0" y1="0" x2="1" y2="0">
      <stop offset="0%" stop-color="#FFB84D"/>
      <stop offset="50%" stop-color="#FFC94D"/>
      <stop offset="100%" stop-color="#FF9A3D"/>
    </linearGradient>
    <filter id="glow" x="-50%" y="-50%" width="200%" height="200%">
      <feGaussianBlur stdDeviation="6" result="b"/>
      <feMerge><feMergeNode in="b"/><feMergeNode in="SourceGraphic"/></feMerge>
    </filter>
    <radialGradient id="vignette">
      <stop offset="0%" stop-color="#0A0A0A"/>
      <stop offset="70%" stop-color="#080808"/>
      <stop offset="100%" stop-color="#000000"/>
    </radialGradient>
  </defs>

  <rect width="100%" height="100%" fill="url(#vignette)"/>

  <!-- 聚光效果 -->
  <ellipse cx="960" cy="560" rx="420" ry="140" fill="#E7A93A" opacity="0.12" filter="url(#glow)"/>

  <!-- 辅助细线 -->
  <path d="M 0 620 
           C 200 620, 250 480, 350 480
           C 450 480, 450 620, 550 620
           C 650 620, 720 250, 770 250
           C 820 250, 830 820, 930 820
           C 1030 820, 1120 450, 1220 450
           C 1320 450, 1330 580, 1430 580
           C 1530 580, 1530 520, 1620 520"
        fill="none" stroke="url(#g)" stroke-width="2" opacity="0.4" filter="url(#glow)"/>
        
  <path d="M 0 580 
           C 200 580, 250 520, 350 520
           C 450 520, 450 580, 550 580
           C 650 580, 680 150, 730 150
           C 780 150, 870 880, 970 880
           C 1070 880, 1080 350, 1180 350
           C 1280 350, 1370 620, 1470 620
           C 1570 620, 1570 480, 1640 480"
        fill="none" stroke="url(#g)" stroke-width="1.5" opacity="0.3" filter="url(#glow)"/>

  <!-- 主波 -->
  <path d="M 0 600 
           C 200 600, 250 500, 350 500
           C 450 500, 450 600, 550 600
           C 650 600, 700 200, 750 200
           C 800 200, 850 850, 950 850
           C 1050 850, 1100 400, 1200 400
           C 1300 400, 1350 600, 1450 600
           C 1550 600, 1550 500, 1600 500"
        fill="none" stroke="url(#g)" stroke-width="6" stroke-linecap="round" filter="url(#glow)"/>

  <!-- 飞鸟 -->
  <path d="M 1600 500
           C 1620 450, 1660 380, 1720 330
           C 1680 410, 1660 450, 1670 470
           C 1730 450, 1780 450, 1820 470
           C 1750 490, 1680 490, 1660 510
           C 1670 550, 1650 590, 1600 500 Z"
        fill="none" stroke="url(#g)" stroke-width="6" stroke-linejoin="round" filter="url(#glow)"/>

  <!-- 音符装饰 -->
  <g stroke="url(#g)" stroke-width="3" fill="none" filter="url(#glow)" opacity="0.8">
    <path d="M350 420 l0 -30 l20 -10 l0 30" />
    <circle cx="348" cy="420" r="8" fill="url(#g)"/>
    <circle cx="368" cy="410" r="8" fill="url(#g)"/>
    
    <path d="M550 500 l0 -40" />
    <circle cx="546" cy="502" r="10" fill="url(#g)"/>
    
    <path d="M850 650 l0 -30 l15 -5 l0 25" />
    <circle cx="848" cy="650" r="6" fill="url(#g)"/>
    <circle cx="863" cy="645" r="6" fill="url(#g)"/>
  </g>
  
  <!-- 粒子/星光 -->
  <g fill="url(#g)" opacity="0.8" filter="url(#glow)">
    <circle cx="200" cy="550" r="2.5" />
    <circle cx="250" cy="620" r="1.5" />
    <circle cx="350" cy="450" r="2" />
    <circle cx="450" cy="550" r="3" />
    <circle cx="600" cy="650" r="2.5" />
    <circle cx="680" cy="300" r="2" />
    <circle cx="750" cy="150" r="3.5" />
    <circle cx="800" cy="400" r="1.5" />
    <circle cx="850" cy="800" r="2.5" />
    <circle cx="950" cy="900" r="3" />
    <circle cx="1050" cy="700" r="2" />
    <circle cx="1100" cy="350" r="2.5" />
    <circle cx="1200" cy="300" r="3" />
    <circle cx="1300" cy="550" r="1.5" />
    <circle cx="1400" cy="650" r="2.5" />
    <circle cx="1500" cy="500" r="2" />
    <circle cx="1550" cy="620" r="3" />
    <circle cx="1650" cy="400" r="2.5" />
    <circle cx="1750" cy="300" r="3" />
    <circle cx="1800" cy="520" r="2" />
    <circle cx="1850" cy="450" r="2.5" />
  </g>
</svg>